<svg xmlns="http://www.w3.org/2000/svg" viewBox="0 0 240 500" width="240" height="500" role="img" aria-label="断拍" data-illustrated-avatar="1" data-view="front"><title>断拍</title><g stroke="#342d2c" stroke-width="2.15" stroke-linejoin="round" stroke-linecap="round"><g data-layer="legs" data-part="front"><path d="M87 263 116 268 111 336 101 380 93 449 78 449 83 377 87 333Z" fill="#f6dbc0" /><path d="M120 265 150 262 148 342 137 393 139 451 123 452 120 392 129 339Z" fill="#f6dbc0" /><path d="M108 282 115 272 109 339 98 382 87 444 84 379 94 336Z" fill="#342d2c" stroke="none" opacity=".11"/><path d="M141 288 150 272 148 342 137 393 135 442 129 394 137 340Z" fill="#342d2c" stroke="none" opacity=".11"/><path d="M80 444 94 445M124 446 137 445" fill="none" stroke-width="1.45"/></g><g data-layer="shoes" data-part="0"><g transform=""><path d="M78 441 94 442 99 455 112 463 113 474 67 474 66 467Z" fill="#eee3cd" /><path d="M99 455Q112 457 113 466L92 466Z" fill="#f3e7cf" /><path d="M77 450 91 453M75 455 89 458M73 460 87 463" fill="none" stroke-width="1.45"/><path d="M66 466Q89 469 113 466L113 475 66 475Z" fill="#f3e7cf" stroke-width="1.8"/><path d="M70 471 109 472" fill="none" stroke-width="1.45"/></g><g transform="translate(48 2) translate(175 0) scale(-1 1)"><path d="M78 441 94 442 99 455 112 463 113 474 67 474 66 467Z" fill="#eee3cd" /><path d="M99 455Q112 457 113 466L92 466Z" fill="#f3e7cf" /><path d="M77 450 91 453M75 455 89 458M73 460 87 463" fill="none" stroke-width="1.45"/><path d="M66 466Q89 469 113 466L113 475 66 475Z" fill="#f3e7cf" stroke-width="1.8"/><path d="M70 471 109 472" fill="none" stroke-width="1.45"/></g></g><g data-layer="bottom" data-part="1"><path d="M83 252 147 251 149 335 134 389 146 447 121 455 114 394 124 335 117 284 109 337 93 389 93 449 70 449 76 385 82 331Z" fill="#47404b" /><path d="M117 280 128 334 119 390 128 442 121 450 113 393 122 335 116 299 106 340 84 408 91 389 112 326Z" fill="#342d2c" stroke="none" opacity=".17"/><path d="M88 265Q117 270 147 263M117 269 117 284M91 269 89 283M138 267 141 282" fill="none" stroke-width="1.45"/><path d="M86 268 94 272 84 286M144 267 137 273 151 284" fill="none" stroke-width="1.45"/><path d="M101 311 96 343 86 372M136 316 130 348M124 392 134 415M77 439 88 443M123 448 141 443" fill="none" stroke-width="1.45"/><path d="M126 255h8v10h-8Z" fill="#b79b68" stroke-width="1"/></g><g data-layer="stance" data-pose="sway" transform="rotate(4.8 119 263)"><g data-layer="torso" data-part="0"><path d="M101 148 124 146 143 175 132 222 146 254 83 259 91 224 81 179Z" fill="#f6dbc0" /><path d="M88 184 99 225 92 253 85 254Z" fill="#342d2c" stroke="none" opacity=".11"/></g><g data-layer="arms" data-part="front"><path d="M72 177 86 187 73 236 91 273 84 282 77 278 60 242 61 225Z" fill="#f6dbc0" /><path d="M146 178 160 181 164 229 159 269 156 282 149 287 143 281 146 269 148 230Z" fill="#f6dbc0" /><path d="M156 197 161 217 160 240 153 270 150 280 149 273 154 230Z" fill="#342d2c" stroke="none" opacity=".11"/><path d="M147 274 145 281M152 273 151 282M79 269 86 275" fill="none" stroke-width="1.45"/></g><g data-layer="top" data-part="1"><defs><clipPath id="illustrated-cloth-1-front-sway"><path d="M94 150 111 157 126 151 149 159 166 219 156 260 139 268 137 242 143 270 82 270 79 246 72 267 55 250 57 213 68 163Z" fill="#fff" stroke="none"/></clipPath></defs><g clip-path="url(#illustrated-cloth-1-front-sway)"><path d="M94 150 111 157 126 151 149 159 166 219 156 260 139 268 137 242 143 270 82 270 79 246 72 267 55 250 57 213 68 163Z" fill="#8c9b7a" /><path d="M96 154Q110 176 124 153" fill="#f6dbc0" stroke-width="1.8"/><path d="M104 157 124 153 137 263 112 269 97 253Z" fill="#f3e7cf" /><path d="M93 149 109 158 98 183 78 169ZM126 150 141 166 127 184 119 161Z" fill="#8c9b7a" /><path d="M98 185 100 255M128 185 136 251" fill="none" stroke-width="1.45"/><path d="M74 198 94 194 94 219 71 222ZM132 196 149 199 154 219 136 218Z" fill="none" stroke-width="1.6"/><path d="M61 240 79 225M143 239 162 230M59 248 73 255" fill="none" stroke-width="1.45"/><path d="M80 184 89 199 84 259 78 251Z" fill="#342d2c" stroke="none" opacity=".11"/></g><path d="M94 150 111 157 126 151 149 159 166 219 156 260 139 268 137 242 143 270 82 270 79 246 72 267 55 250 57 213 68 163Z" fill="none" /></g><g data-layer="head" transform="rotate(5 117 133)"><g data-layer="hair-back" data-part="0"><path d="M81 73 82 112 92 143 107 125 137 131 151 109 160 73 139 53Z" fill="#302b38" /></g><g data-layer="skin" data-part="0"><path d="M102 122 125 124 125 155 112 168 95 155 102 145Z" fill="#f6dbc0" /><path d="M102 132 125 132 125 148 101 145Z" fill="#342d2c" stroke="none" opacity=".16"/><g data-layer="face" data-part="front"><path d="M83 77Q113 53 141 72L151 90 148 115 136 132 116 139 96 133 84 119 81 107 73 102 73 91 79 86Z" fill="#f6dbc0" /><path d="M85 83 95 88 93 113 102 132 96 131 84 119 80 107 76 100 79 91Z" fill="#342d2c" stroke="none" opacity=".1"/><path d="M77 93 82 95 82 102" fill="none" stroke-width="1.45"/></g></g><g data-layer="features" data-part="neutral"><g stroke="#342d2c"><g stroke="#342d2c" transform=""><path d="M87 99q11.5 -5 23 1q-9.5 14 -21 6Z" fill="#f3e7cf" stroke-width="1.5"/><path d="M93 98l8 1 -1 8q-5 3 -7 -1Z" fill="#342d2c" stroke="none"/><path d="M86 97q11.5 -4 26 2" fill="none" stroke-width="3"/></g><g stroke="#342d2c" transform=""><path d="M124 98q11.5 -5 23 1q-9.5 14 -21 6Z" fill="#f3e7cf" stroke-width="1.5"/><path d="M130 97l8 1 -1 8q-5 3 -7 -1Z" fill="#342d2c" stroke="none"/><path d="M123 96q11.5 -4 26 2" fill="none" stroke-width="3"/></g><path d="M86 88 107 91M126 89 146 86M116 108 113 116 118 116" fill="none" stroke-width="1.45"/><path d="M109 127 120 128" fill="none" stroke-width="1.8"/></g></g><g data-layer="eyewear" data-part="0"></g><g data-layer="hair-front" data-part="0"><path d="M74 85 70 68 85 50 78 36 104 42 112 28 137 38 151 32 153 49 172 61 155 66 160 91 143 74 134 109 126 68 108 91 104 69 91 88 86 76 81 110Z" fill="#302b38" /><path d="M88 55 101 45M123 41 144 50" fill="none" stroke="#f3e7cf" stroke-width="1.25" opacity=".42"/></g></g><g data-layer="accessory" data-part="none"></g></g></g></svg>