<svg xmlns="http://www.w3.org/2000/svg" viewBox="0 0 240 500" width="240" height="500" role="img" aria-label="循迹" data-illustrated-avatar="1" data-view="front"><title>循迹</title><g stroke="#342d2c" stroke-width="2.15" stroke-linejoin="round" stroke-linecap="round"><g data-layer="legs" data-part="front"><path d="M87 263 116 268 111 336 101 380 93 449 78 449 83 377 87 333Z" fill="#f6dbc0" /><path d="M120 265 150 262 148 342 137 393 139 451 123 452 120 392 129 339Z" fill="#f6dbc0" /><path d="M108 282 115 272 109 339 98 382 87 444 84 379 94 336Z" fill="#342d2c" stroke="none" opacity=".11"/><path d="M141 288 150 272 148 342 137 393 135 442 129 394 137 340Z" fill="#342d2c" stroke="none" opacity=".11"/><path d="M80 444 94 445M124 446 137 445" fill="none" stroke-width="1.45"/></g><g data-layer="shoes" data-part="2"><g transform=""><path d="M76 447Q84 439 94 447L98 457Q110 456 114 465L113 474 65 474 66 462Z" fill="#47404b" /><path d="M77 450 96 452 100 461 73 459Z" fill="#47404b" /><path d="M82 453h10v4H81Z" fill="#b79b68" stroke-width="1"/><path d="M70 464Q91 469 110 463" fill="none" stroke-width="1.45"/><path d="M66 466Q89 469 113 466L113 475 66 475Z" fill="#342d2c" stroke-width="1.8"/><path d="M70 471 109 472" fill="none" stroke-width="1.45"/></g><g transform="translate(48 2) translate(175 0) scale(-1 1)"><path d="M76 447Q84 439 94 447L98 457Q110 456 114 465L113 474 65 474 66 462Z" fill="#47404b" /><path d="M77 450 96 452 100 461 73 459Z" fill="#47404b" /><path d="M82 453h10v4H81Z" fill="#b79b68" stroke-width="1"/><path d="M70 464Q91 469 110 463" fill="none" stroke-width="1.45"/><path d="M66 466Q89 469 113 466L113 475 66 475Z" fill="#342d2c" stroke-width="1.8"/><path d="M70 471 109 472" fill="none" stroke-width="1.45"/></g></g><g data-layer="bottom" data-part="2"><path d="M82 251 150 251 158 344 158 455 118 459 114 354 118 290 111 343 101 455 62 451 80 343Z" fill="#eee3cd" /><path d="M117 280 128 334 119 390 128 442 121 450 113 393 122 335 116 299 106 340 84 408 91 389 112 326Z" fill="#342d2c" stroke="none" opacity=".17"/><path d="M88 265Q117 270 147 263M117 269 117 284M91 269 89 283M138 267 141 282" fill="none" stroke-width="1.45"/><path d="M86 268 94 272 84 286M144 267 137 273 151 284" fill="none" stroke-width="1.45"/><path d="M101 311 96 343 86 372M136 316 130 348M124 392 134 415M77 439 88 443M123 448 141 443" fill="none" stroke-width="1.45"/><path d="M126 255h8v10h-8Z" fill="#b79b68" stroke-width="1"/></g><g data-layer="stance" data-pose="listen" transform="rotate(-1.2 119 263)"><g data-layer="torso" data-part="0"><path d="M101 148 124 146 143 175 132 222 146 254 83 259 91 224 81 179Z" fill="#f6dbc0" /><path d="M88 184 99 225 92 253 85 254Z" fill="#342d2c" stroke="none" opacity=".11"/></g><g data-layer="arms" data-part="front"><path d="M72 177 86 187 73 236 91 273 84 282 77 278 60 242 61 225Z" fill="#f6dbc0" /><path d="M146 178 160 181 164 229 159 269 156 282 149 287 143 281 146 269 148 230Z" fill="#f6dbc0" /><path d="M156 197 161 217 160 240 153 270 150 280 149 273 154 230Z" fill="#342d2c" stroke="none" opacity=".11"/><path d="M147 274 145 281M152 273 151 282M79 269 86 275" fill="none" stroke-width="1.45"/></g><g data-layer="top" data-part="2"><defs><clipPath id="illustrated-cloth-2-front-listen"><path d="M95 154 111 158 125 152 144 160 157 189 156 237 162 263 141 270 137 201 137 261 85 263 83 202 78 267 56 261 63 230 60 192 72 164Z" fill="#fff" stroke="none"/></clipPath></defs><g clip-path="url(#illustrated-cloth-2-front-listen)"><path d="M95 154 111 158 125 152 144 160 157 189 156 237 162 263 141 270 137 201 137 261 85 263 83 202 78 267 56 261 63 230 60 192 72 164Z" fill="#f3e7cf" /><path d="M95 154 110 159 124 153 139 162 135 214 143 241 84 247 88 211 80 166Z" fill="#b67e65" /><path d="M99 157 113 184 122 156 128 159 114 195 92 161Z" fill="#b67e65" /><path d="M87 236 139 231M92 236 93 244M101 235 102 243M110 234 111 242M120 233 121 241M131 232 132 240" fill="none" stroke-width="1.45"/><path d="M60 251 78 255M142 259 159 255" fill="none" stroke-width="1.45"/></g><path d="M95 154 111 158 125 152 144 160 157 189 156 237 162 263 141 270 137 201 137 261 85 263 83 202 78 267 56 261 63 230 60 192 72 164Z" fill="none" /></g><g data-layer="head" transform="rotate(-6 117 133)"><g data-layer="hair-back" data-part="5"><path d="M75 67Q83 33 127 39L159 66 158 140 140 126 124 134 95 128 74 136Z" fill="#302b38" /></g><g data-layer="skin" data-part="0"><path d="M102 122 125 124 125 155 112 168 95 155 102 145Z" fill="#f6dbc0" /><path d="M102 132 125 132 125 148 101 145Z" fill="#342d2c" stroke="none" opacity=".16"/><g data-layer="face" data-part="front"><path d="M83 77Q113 53 141 72L151 90 148 115 136 132 116 139 96 133 84 119 81 107 73 102 73 91 79 86Z" fill="#f6dbc0" /><path d="M85 83 95 88 93 113 102 132 96 131 84 119 80 107 76 100 79 91Z" fill="#342d2c" stroke="none" opacity=".1"/><path d="M77 93 82 95 82 102" fill="none" stroke-width="1.45"/></g></g><g data-layer="features" data-part="neutral"><g stroke="#342d2c"><g stroke="#342d2c" transform=""><path d="M87 99q11.5 -5 23 1q-9.5 14 -21 6Z" fill="#f3e7cf" stroke-width="1.5"/><path d="M93 98l8 1 -1 8q-5 3 -7 -1Z" fill="#342d2c" stroke="none"/><path d="M86 97q11.5 -4 26 2" fill="none" stroke-width="3"/></g><g stroke="#342d2c" transform=""><path d="M124 98q11.5 -5 23 1q-9.5 14 -21 6Z" fill="#f3e7cf" stroke-width="1.5"/><path d="M130 97l8 1 -1 8q-5 3 -7 -1Z" fill="#342d2c" stroke="none"/><path d="M123 96q11.5 -4 26 2" fill="none" stroke-width="3"/></g><path d="M86 88 107 91M126 89 146 86M116 108 113 116 118 116" fill="none" stroke-width="1.45"/><path d="M109 127 120 128" fill="none" stroke-width="1.8"/></g></g><g data-layer="eyewear" data-part="2"><path d="M78 85l34 12 -5 18q-20 8 -29 -30ZM122 94l30 -13 -7 28q-16 11 -23 -1Z" fill="none" stroke="#795343" stroke-width="3.3"/><path d="M111 101q4 -5 11 0M82 94l-8 -4M149 92l4 -5" fill="none" stroke="#795343" stroke-width="2.4"/></g><g data-layer="hair-front" data-part="5"><path d="M73 102 69 78 77 54 99 38 126 36 149 51 161 82 144 89 137 61 134 89 118 91 113 62 108 91 94 88 92 63 85 90 80 122Z" fill="#302b38" /><path d="M88 55 101 45M123 41 144 50" fill="none" stroke="#f3e7cf" stroke-width="1.25" opacity=".42"/></g></g><g data-layer="accessory" data-part="none"></g></g></g></svg>